<svg id="Laag_1" data-name="Laag 1" xmlns="http://www.w3.org/2000/svg" xmlns:xlink="http://www.w3.org/1999/xlink" viewBox="0 0 40.29 41.67"><defs><style>.cls-1{fill:url(#Naamloos_verloop_54);}</style><linearGradient id="Naamloos_verloop_54" x1="20.14" y1="4.62" x2="20.14" y2="37.06" gradientUnits="userSpaceOnUse"><stop offset="0" stop-color="#005c95"/><stop offset="0.46" stop-color="#0087bc"/><stop offset="0.8" stop-color="#00a2d4"/></linearGradient></defs><path class="cls-1" d="M20.17,28.29a11.41,11.41,0,0,1-8.57-3.35,11.75,11.75,0,0,1-3.24-8.51,12,12,0,0,1,1.46-5.89A11.13,11.13,0,0,1,14,6.24a11.84,11.84,0,0,1,6.17-1.62,12.22,12.22,0,0,1,6.22,1.55,10.38,10.38,0,0,1,4.13,4.23,12.77,12.77,0,0,1,1.41,6,12.26,12.26,0,0,1-1.45,5.91,11.15,11.15,0,0,1-4.17,4.32A11.67,11.67,0,0,1,20.17,28.29Zm0-4.62A5.81,5.81,0,0,0,24.9,21.6a7.86,7.86,0,0,0,1.71-5.17,7.8,7.8,0,0,0-1.71-5.14,5.73,5.73,0,0,0-4.69-2.08,5.88,5.88,0,0,0-4.79,2.08,7.75,7.75,0,0,0-1.72,5.14,7.86,7.86,0,0,0,1.71,5.17A5.84,5.84,0,0,0,20.17,23.67ZM31.93,35.81a1.55,1.55,0,0,1-.24.92.77.77,0,0,1-.66.33H9.26a.79.79,0,0,1-.67-.33,1.62,1.62,0,0,1-.23-.92V34.36a1.57,1.57,0,0,1,.23-.91.79.79,0,0,1,.67-.33H31a.77.77,0,0,1,.66.33,1.49,1.49,0,0,1,.24.91Z"/></svg>