<svg id="Laag_1" data-name="Laag 1" xmlns="http://www.w3.org/2000/svg" xmlns:xlink="http://www.w3.org/1999/xlink" viewBox="0 0 349.65 75.11"><defs><style>.cls-1{fill:url(#Naamloos_verloop);}.cls-2,.cls-3,.cls-4,.cls-6{isolation:isolate;}.cls-3,.cls-4,.cls-6{font-size:15.6px;fill:#1d1d1b;font-family:MargemRounded-Regular, Margem Rounded;}.cls-4{letter-spacing:-0.02em;}.cls-5,.cls-6{letter-spacing:-0.01em;}.cls-7{fill:none;}</style><linearGradient id="Naamloos_verloop" x1="96.26" y1="46.8" x2="242.5" y2="46.8" gradientTransform="matrix(1, 0, 0, -1, 0, 75.89)" gradientUnits="userSpaceOnUse"><stop offset="0" stop-color="#005c95"/><stop offset="0.07" stop-color="#00659e"/><stop offset="0.29" stop-color="#0080b5"/><stop offset="0.52" stop-color="#0093c6"/><stop offset="0.75" stop-color="#009ed1"/><stop offset="1" stop-color="#00a2d4"/></linearGradient></defs><path class="cls-1" d="M108.08,36.52a11.4,11.4,0,0,1-8.57-3.35,11.74,11.74,0,0,1-3.24-8.51,12,12,0,0,1,1.46-5.89,11.07,11.07,0,0,1,4.18-4.3,11.92,11.92,0,0,1,6.17-1.62,12.2,12.2,0,0,1,6.22,1.55,10.38,10.38,0,0,1,4.13,4.23,12.74,12.74,0,0,1,1.41,6,12.31,12.31,0,0,1-1.45,5.91,11.17,11.17,0,0,1-4.17,4.32A11.64,11.64,0,0,1,108.08,36.52Zm0-4.62a5.81,5.81,0,0,0,4.73-2.07,7.87,7.87,0,0,0,1.71-5.17,7.79,7.79,0,0,0-1.71-5.14,5.74,5.74,0,0,0-4.68-2.08,5.86,5.86,0,0,0-4.8,2.08,7.8,7.8,0,0,0-1.72,5.14,7.87,7.87,0,0,0,1.71,5.17A5.84,5.84,0,0,0,108.08,31.9Zm27.7,4.62a10.76,10.76,0,0,1-8.27-3.3,12.08,12.08,0,0,1-3.07-8.56,11.88,11.88,0,0,1,3.15-8.46,10.72,10.72,0,0,1,8.14-3.35,9.49,9.49,0,0,1,8.07,3.7,1.4,1.4,0,0,1,.37.89,1.53,1.53,0,0,1-.72,1.17l-.87.66a1.47,1.47,0,0,1-.89.45,1.74,1.74,0,0,1-1.17-.64A6.33,6.33,0,0,0,136,17.44a5.59,5.59,0,0,0-4.54,2,7.9,7.9,0,0,0-1.65,5.21,7.81,7.81,0,0,0,1.71,5.19,5.68,5.68,0,0,0,4.62,2A6.24,6.24,0,0,0,140.82,30a1.76,1.76,0,0,1,1.2-.63,1.51,1.51,0,0,1,1,.44l.86.68a1.63,1.63,0,0,1,.66,1.2,1.58,1.58,0,0,1-.33.91A9.94,9.94,0,0,1,135.78,36.52ZM168,45.29a1.57,1.57,0,0,1-1.13-.4,1.47,1.47,0,0,1-.41-1.13V33A10.68,10.68,0,0,1,163,35.57a9.79,9.79,0,0,1-4.25,1,9.51,9.51,0,0,1-7.58-3.3,12.67,12.67,0,0,1-2.85-8.56,12.18,12.18,0,0,1,3-8.53,10,10,0,0,1,7.77-3.28,9.09,9.09,0,0,1,7.6,3.58,17,17,0,0,1,.23-1.8,1.57,1.57,0,0,1,1.73-1.27h1.53a1.57,1.57,0,0,1,1.13.41,1.47,1.47,0,0,1,.41,1.09v28.9a1.47,1.47,0,0,1-.41,1.13,1.57,1.57,0,0,1-1.13.4ZM159.64,31.9a6.79,6.79,0,0,0,4.91-1.79,6.39,6.39,0,0,0,1.89-4.89v-1a6.65,6.65,0,0,0-1.8-5,6.53,6.53,0,0,0-4.76-1.74,6,6,0,0,0-4.47,1.77q-1.72,1.77-1.72,5.36A8.1,8.1,0,0,0,155.32,30,5.42,5.42,0,0,0,159.64,31.9Zm26.25,4.62a8.76,8.76,0,0,1-6.12-1.94,6.69,6.69,0,0,1-.25-9.47,7,7,0,0,1,.56-.53c1.61-1.36,3.94-2,7-2a17.76,17.76,0,0,1,6.42,1v-.45a6,6,0,0,0-1.5-4.48,5.56,5.56,0,0,0-4-1.44,10.54,10.54,0,0,0-5.86,1.59,2.57,2.57,0,0,1-1,.33,1.36,1.36,0,0,1-1.1-.61l-.68-.82a1.63,1.63,0,0,1-.42-1.05,1.36,1.36,0,0,1,.66-1.11,12.13,12.13,0,0,1,4-2.08,17.75,17.75,0,0,1,4.92-.61,11.83,11.83,0,0,1,3.87.62,9.45,9.45,0,0,1,3.16,1.83,8,8,0,0,1,2.17,3.19,12.09,12.09,0,0,1,.79,4.53V34.43a1.58,1.58,0,0,1-.4,1.14A1.54,1.54,0,0,1,197,36h-1.1c-1,0-1.56-.4-1.69-1.19-.18-1-.29-1.69-.32-2.11C192.16,35.24,189.48,36.52,185.89,36.52Zm.75-4.15a7.35,7.35,0,0,0,4.77-1.44,5.26,5.26,0,0,0,2-3.78v-.29a19.36,19.36,0,0,0-5.46-.77,7.33,7.33,0,0,0-4,.86,2.81,2.81,0,0,0-1.25,2.49,2.44,2.44,0,0,0,1.09,2.23A5.25,5.25,0,0,0,186.64,32.37ZM207,36a1.41,1.41,0,0,1-1.52-1.55V14.86a1.47,1.47,0,0,1,.4-1.11,1.59,1.59,0,0,1,1.12-.39h1.46a1.48,1.48,0,0,1,1.66,1.18,15.68,15.68,0,0,1,.31,2.15,8.78,8.78,0,0,1,7.47-3.84c3.69,0,6.2,1.45,7.55,4.36a9.1,9.1,0,0,1,8.3-4.36,8.08,8.08,0,0,1,6.49,2.62c1.5,1.75,2.25,4.34,2.25,7.79V34.43A1.41,1.41,0,0,1,241.26,36h-2.59a1.48,1.48,0,0,1-1.11-.41,1.53,1.53,0,0,1-.39-1.14V23a6.6,6.6,0,0,0-1.12-4.16,4,4,0,0,0-3.33-1.42,5.55,5.55,0,0,0-4.5,1.89,8.19,8.19,0,0,0-1.59,5.43v9.67a1.53,1.53,0,0,1-.41,1.15,1.58,1.58,0,0,1-1.14.4h-2.25a1.47,1.47,0,0,1-1.09-.41,1.53,1.53,0,0,1-.39-1.14V23a6.36,6.36,0,0,0-1.16-4.16,4.11,4.11,0,0,0-3.36-1.42,5.5,5.5,0,0,0-4.44,1.89,8.15,8.15,0,0,0-1.61,5.43v9.67A1.42,1.42,0,0,1,209.57,36H207Zm35.45,8a1,1,0,0,1-.65.92,4.06,4.06,0,0,1-1.82.33H180.62a4,4,0,0,1-1.81-.33,1,1,0,0,1-.66-.92V42.59a1,1,0,0,1,.66-.91,4,4,0,0,1,1.81-.33H240a4.06,4.06,0,0,1,1.82.33,1,1,0,0,1,.65.91Z"/><g class="cls-2"><text class="cls-3" transform="translate(177.17 61.11)">s</text><text class="cls-4" transform="translate(184.45 61.11)">t<tspan class="cls-5" x="6.69" y="0">a</tspan></text><text class="cls-3" transform="translate(199.63 61.11)">tistics </text><text class="cls-6" transform="translate(247.21 61.11)">f</text><text class="cls-3" transform="translate(253.87 61.11)">or </text><text class="cls-4" transform="translate(272.77 61.11)">e<tspan class="cls-5" x="8.18" y="0">v</tspan></text><text class="cls-3" transform="translate(288.82 61.11)">eryone</text></g><rect class="cls-7" width="349.65" height="75.11"/></svg>