<svg id="Laag_1" data-name="Laag 1" xmlns="http://www.w3.org/2000/svg" xmlns:xlink="http://www.w3.org/1999/xlink" viewBox="0 0 349.65 75.11">
  <defs>
    <style>
      .cls-1 {
        fill: url(#Naamloos_verloop_17);
      }

      .cls-2 {
        fill: #1d1d1b;
      }

      .cls-3 {
        fill: none;
      }
    </style>
    <linearGradient id="Naamloos_verloop_17" data-name="Naamloos verloop 17" x1="96.27" y1="29.07" x2="242.47" y2="29.07" gradientUnits="userSpaceOnUse">
      <stop offset="0" stop-color="#005c95"/>
      <stop offset="0.07" stop-color="#00659e"/>
      <stop offset="0.29" stop-color="#0080b5"/>
      <stop offset="0.52" stop-color="#0093c6"/>
      <stop offset="0.75" stop-color="#009ed1"/>
      <stop offset="1" stop-color="#00a2d4"/>
    </linearGradient>
  </defs>
  <path class="cls-1" d="M108.08,36.52a11.41,11.41,0,0,1-8.57-3.35,11.75,11.75,0,0,1-3.24-8.51,12,12,0,0,1,1.46-5.89,11.13,11.13,0,0,1,4.18-4.3,11.84,11.84,0,0,1,6.17-1.62,12.22,12.22,0,0,1,6.22,1.55,10.38,10.38,0,0,1,4.13,4.23,12.77,12.77,0,0,1,1.41,6,12.26,12.26,0,0,1-1.45,5.91,11.15,11.15,0,0,1-4.17,4.32A11.67,11.67,0,0,1,108.08,36.52Zm0-4.62a5.81,5.81,0,0,0,4.73-2.07,7.86,7.86,0,0,0,1.71-5.17,7.8,7.8,0,0,0-1.71-5.14,5.72,5.72,0,0,0-4.68-2.08,5.88,5.88,0,0,0-4.8,2.08,7.75,7.75,0,0,0-1.72,5.14,7.86,7.86,0,0,0,1.71,5.17A5.84,5.84,0,0,0,108.08,31.9Zm27.7,4.62a10.75,10.75,0,0,1-8.27-3.3,12.08,12.08,0,0,1-3.07-8.56,11.87,11.87,0,0,1,3.15-8.46,10.69,10.69,0,0,1,8.14-3.35,9.48,9.48,0,0,1,8.07,3.7,1.4,1.4,0,0,1,.37.89,1.53,1.53,0,0,1-.72,1.17l-.87.66a1.49,1.49,0,0,1-.89.45,1.73,1.73,0,0,1-1.17-.64A6.32,6.32,0,0,0,136,17.44a5.58,5.58,0,0,0-4.54,2,7.91,7.91,0,0,0-1.65,5.21,7.8,7.8,0,0,0,1.71,5.19,5.69,5.69,0,0,0,4.62,2A6.23,6.23,0,0,0,140.82,30a1.77,1.77,0,0,1,1.2-.63,1.52,1.52,0,0,1,1,.44l.86.68a1.64,1.64,0,0,1,.66,1.2,1.59,1.59,0,0,1-.33.91A9.92,9.92,0,0,1,135.78,36.52ZM168,45.29a1.57,1.57,0,0,1-1.13-.4,1.48,1.48,0,0,1-.41-1.13V33A10.61,10.61,0,0,1,163,35.57a9.72,9.72,0,0,1-4.25,1,9.52,9.52,0,0,1-7.58-3.3,12.66,12.66,0,0,1-2.85-8.56,12.19,12.19,0,0,1,3-8.53,10,10,0,0,1,7.77-3.28,9.08,9.08,0,0,1,7.6,3.58c0-.29.09-.89.23-1.8a1.57,1.57,0,0,1,1.73-1.27h1.53a1.54,1.54,0,0,1,1.13.41,1.46,1.46,0,0,1,.41,1.09v28.9a1.48,1.48,0,0,1-.41,1.13,1.57,1.57,0,0,1-1.13.4ZM159.64,31.9a6.81,6.81,0,0,0,4.91-1.79,6.4,6.4,0,0,0,1.89-4.89v-1a6.66,6.66,0,0,0-1.8-5,6.53,6.53,0,0,0-4.76-1.74,6,6,0,0,0-4.47,1.77q-1.72,1.77-1.72,5.36A8.08,8.08,0,0,0,155.32,30,5.42,5.42,0,0,0,159.64,31.9Zm26.25,4.62a8.76,8.76,0,0,1-6.12-1.94,6.7,6.7,0,0,1,.31-10c1.61-1.36,3.94-2,7-2a17.77,17.77,0,0,1,6.42,1v-.45A6,6,0,0,0,192,18.65a5.52,5.52,0,0,0-4-1.44,10.55,10.55,0,0,0-5.86,1.59,2.5,2.5,0,0,1-1,.33,1.35,1.35,0,0,1-1.1-.61l-.68-.82a1.6,1.6,0,0,1-.42-1.05,1.35,1.35,0,0,1,.66-1.11,12.21,12.21,0,0,1,4-2.08,17.7,17.7,0,0,1,4.92-.61,11.81,11.81,0,0,1,3.87.62,9.32,9.32,0,0,1,3.16,1.83,8,8,0,0,1,2.17,3.19,12.08,12.08,0,0,1,.79,4.53V34.43a1.58,1.58,0,0,1-.4,1.14A1.52,1.52,0,0,1,197,36h-1.1c-1,0-1.56-.4-1.69-1.19-.18-1-.29-1.69-.32-2.11C192.16,35.24,189.48,36.52,185.89,36.52Zm.75-4.15a7.34,7.34,0,0,0,4.77-1.44,5.23,5.23,0,0,0,2-3.78l0-.29a19.42,19.42,0,0,0-5.46-.77,7.35,7.35,0,0,0-4,.86,2.81,2.81,0,0,0-1.25,2.49,2.45,2.45,0,0,0,1.09,2.23A5.24,5.24,0,0,0,186.64,32.37ZM207,36a1.51,1.51,0,0,1-1.12-.41,1.54,1.54,0,0,1-.4-1.14V14.86a1.47,1.47,0,0,1,.4-1.11,1.54,1.54,0,0,1,1.12-.39h1.46a1.48,1.48,0,0,1,1.66,1.18,15.8,15.8,0,0,1,.31,2.15,8.78,8.78,0,0,1,7.47-3.84q5.53,0,7.55,4.36a9.1,9.1,0,0,1,8.3-4.36,8.07,8.07,0,0,1,6.49,2.62q2.25,2.62,2.25,7.79V34.43A1.41,1.41,0,0,1,240.92,36h-2.25a1.47,1.47,0,0,1-1.11-.41,1.58,1.58,0,0,1-.39-1.14V23a6.59,6.59,0,0,0-1.12-4.16,4,4,0,0,0-3.33-1.42,5.56,5.56,0,0,0-4.5,1.89,8.22,8.22,0,0,0-1.59,5.43v9.67a1.54,1.54,0,0,1-.41,1.15,1.57,1.57,0,0,1-1.14.4h-2.25a1.44,1.44,0,0,1-1.09-.41,1.58,1.58,0,0,1-.39-1.14V23a6.41,6.41,0,0,0-1.16-4.16,4.1,4.1,0,0,0-3.36-1.42,5.51,5.51,0,0,0-4.44,1.89,8.16,8.16,0,0,0-1.61,5.43v9.67A1.41,1.41,0,0,1,209.23,36ZM242.45,44a1,1,0,0,1-.65.92,4.08,4.08,0,0,1-1.82.33H180.62a4.06,4.06,0,0,1-1.81-.33,1,1,0,0,1-.66-.92V42.59a1,1,0,0,1,.66-.91,4.06,4.06,0,0,1,1.81-.33H240a4.08,4.08,0,0,1,1.82.33,1,1,0,0,1,.65.91Z"/>
  <g>
    <path class="cls-2" d="M181,61.29a4.06,4.06,0,0,1-2.84-.95.41.41,0,0,1-.15-.27.46.46,0,0,1,.13-.3l.12-.16a.4.4,0,0,1,.3-.15.5.5,0,0,1,.28.11,3.38,3.38,0,0,0,2.06.58c1,0,1.54-.35,1.54-1a.88.88,0,0,0-.44-.81,3.42,3.42,0,0,0-1.28-.38c-.31,0-.58-.09-.81-.14a4.38,4.38,0,0,1-.69-.24,2,2,0,0,1-.57-.39,1.64,1.64,0,0,1-.36-.59,2.3,2.3,0,0,1-.13-.83,1.81,1.81,0,0,1,.77-1.49,3.23,3.23,0,0,1,2-.59,3.44,3.44,0,0,1,2.45.89.38.38,0,0,1,.13.28.48.48,0,0,1-.12.3l-.15.16a.38.38,0,0,1-.58,0,2.43,2.43,0,0,0-.8-.41,4.07,4.07,0,0,0-1-.11,1.86,1.86,0,0,0-1.13.27.88.88,0,0,0-.35.71.73.73,0,0,0,.38.71,4.5,4.5,0,0,0,1.34.35c.29,0,.55.1.78.16a4.22,4.22,0,0,1,.7.25,2.22,2.22,0,0,1,.6.39,1.69,1.69,0,0,1,.39.59,2.09,2.09,0,0,1,.15.81,2,2,0,0,1-.73,1.62A3,3,0,0,1,181,61.29Z"/>
    <path class="cls-2" d="M189.25,61.29a2.68,2.68,0,0,1-2.11-.82,3.59,3.59,0,0,1-.75-2.48V55H185.3a.37.37,0,0,1-.41-.41v-.32a.38.38,0,0,1,.41-.41h1.09V52.17a.35.35,0,0,1,.4-.4h.48a.39.39,0,0,1,.29.1.42.42,0,0,1,.11.3v1.66h2.7a.4.4,0,0,1,.29.11.37.37,0,0,1,.11.3v.32a.37.37,0,0,1-.11.3.4.4,0,0,1-.29.11h-2.7v3.12c0,1.37.55,2.06,1.65,2.06a2.13,2.13,0,0,0,1.05-.29.6.6,0,0,1,.26-.07.34.34,0,0,1,.3.18l.12.21a.46.46,0,0,1,.1.28.34.34,0,0,1-.14.25A2.78,2.78,0,0,1,189.25,61.29Z"/>
    <path class="cls-2" d="M194.78,61.29a2.87,2.87,0,0,1-1.92-.6,2,2,0,0,1-.7-1.59,2.08,2.08,0,0,1,.8-1.69,3.48,3.48,0,0,1,2.26-.65,5.91,5.91,0,0,1,2.17.38V57a2.22,2.22,0,0,0-.53-1.65,1.94,1.94,0,0,0-1.41-.52,3.53,3.53,0,0,0-2.09.61.54.54,0,0,1-.26.09.39.39,0,0,1-.3-.16l-.16-.18a.43.43,0,0,1-.12-.28.43.43,0,0,1,.17-.3,3.85,3.85,0,0,1,1.28-.7,5.67,5.67,0,0,1,1.58-.2,3.15,3.15,0,0,1,2.2.81,3,3,0,0,1,.89,2.31v3.93a.41.41,0,0,1-.11.3.44.44,0,0,1-.3.1H198a.39.39,0,0,1-.45-.34c-.06-.36-.1-.62-.11-.78a2.73,2.73,0,0,1-1,.95A3.54,3.54,0,0,1,194.78,61.29Zm.13-1.11a2.67,2.67,0,0,0,1.78-.56,1.93,1.93,0,0,0,.7-1.45v-.1a7.12,7.12,0,0,0-2-.28,2.71,2.71,0,0,0-1.54.33,1.09,1.09,0,0,0-.46,1Q193.41,60.18,194.91,60.18Z"/>
    <path class="cls-2" d="M204.43,61.29a2.7,2.7,0,0,1-2.11-.82,3.59,3.59,0,0,1-.75-2.48V55h-1.09a.37.37,0,0,1-.41-.41v-.32a.41.41,0,0,1,.11-.3.42.42,0,0,1,.3-.11h1.09V52.17a.35.35,0,0,1,.4-.4h.48a.39.39,0,0,1,.29.1.39.39,0,0,1,.11.3v1.66h2.7a.4.4,0,0,1,.29.11.37.37,0,0,1,.11.3v.32a.37.37,0,0,1-.11.3.4.4,0,0,1-.29.11h-2.7v3.12c0,1.37.55,2.06,1.65,2.06a2.13,2.13,0,0,0,1.05-.29.6.6,0,0,1,.26-.07.33.33,0,0,1,.3.18l.12.21a.46.46,0,0,1,.1.28.34.34,0,0,1-.14.25A2.78,2.78,0,0,1,204.43,61.29Z"/>
    <path class="cls-2" d="M208.59,52.38a.84.84,0,0,1-.86-.86.84.84,0,0,1,.86-.86.76.76,0,0,1,.59.25.82.82,0,0,1,.24.61.85.85,0,0,1-.24.61A.8.8,0,0,1,208.59,52.38Zm-.25,8.73a.4.4,0,0,1-.3-.1.41.41,0,0,1-.11-.3V54.24a.37.37,0,0,1,.41-.41h.47a.4.4,0,0,1,.29.11.37.37,0,0,1,.11.3v6.47a.35.35,0,0,1-.4.4Z"/>
    <path class="cls-2" d="M214.29,61.29a4.08,4.08,0,0,1-2.84-.95.39.39,0,0,1-.14-.27.46.46,0,0,1,.13-.3l.12-.16a.36.36,0,0,1,.29-.15.53.53,0,0,1,.29.11,3.35,3.35,0,0,0,2.05.58c1,0,1.55-.35,1.55-1a.89.89,0,0,0-.44-.81,3.54,3.54,0,0,0-1.29-.38c-.31,0-.58-.09-.8-.14a3.77,3.77,0,0,1-.69-.24,1.79,1.79,0,0,1-.57-.39,1.64,1.64,0,0,1-.36-.59,2.29,2.29,0,0,1-.14-.83,1.84,1.84,0,0,1,.77-1.49,3.26,3.26,0,0,1,2-.59,3.41,3.41,0,0,1,2.44.89.4.4,0,0,1,.14.28.48.48,0,0,1-.12.3l-.16.16a.4.4,0,0,1-.29.15.41.41,0,0,1-.28-.12,2.54,2.54,0,0,0-.8-.41,4.13,4.13,0,0,0-1-.11,1.86,1.86,0,0,0-1.13.27.88.88,0,0,0-.35.71.73.73,0,0,0,.38.71,4.42,4.42,0,0,0,1.33.35c.3,0,.56.1.78.16a4.66,4.66,0,0,1,.71.25,2,2,0,0,1,.59.39,1.69,1.69,0,0,1,.39.59A2.09,2.09,0,0,1,217,59a2,2,0,0,1-.73,1.62A3,3,0,0,1,214.29,61.29Z"/>
    <path class="cls-2" d="M222.57,61.29a2.7,2.7,0,0,1-2.11-.82,3.59,3.59,0,0,1-.74-2.48V55h-1.09a.36.36,0,0,1-.41-.41v-.32a.37.37,0,0,1,.11-.3.41.41,0,0,1,.3-.11h1.09V52.17a.35.35,0,0,1,.4-.4h.47a.4.4,0,0,1,.3.1.42.42,0,0,1,.11.3v1.66h2.69a.38.38,0,0,1,.41.41v.32a.38.38,0,0,1-.41.41H221v3.12c0,1.37.55,2.06,1.65,2.06a2.07,2.07,0,0,0,1-.29.6.6,0,0,1,.27-.07.35.35,0,0,1,.3.18l.12.21a.53.53,0,0,1,.1.28.33.33,0,0,1-.15.25A2.76,2.76,0,0,1,222.57,61.29Z"/>
    <path class="cls-2" d="M226.73,52.38a.87.87,0,0,1-.62-.25.85.85,0,0,1-.24-.61.84.84,0,0,1,.86-.86.79.79,0,0,1,.6.25.85.85,0,0,1,.23.61.89.89,0,0,1-.23.61A.82.82,0,0,1,226.73,52.38Zm-.25,8.73a.35.35,0,0,1-.4-.4V54.24a.36.36,0,0,1,.4-.41H227a.38.38,0,0,1,.41.41v6.47a.36.36,0,0,1-.41.4Z"/>
    <path class="cls-2" d="M233,61.29a3.39,3.39,0,0,1-2.63-1.06,4.33,4.33,0,0,1,0-5.49A3.3,3.3,0,0,1,233,53.66a3.06,3.06,0,0,1,2.53,1.14.4.4,0,0,1,.09.24.41.41,0,0,1-.17.31l-.18.15a.41.41,0,0,1-.25.12.43.43,0,0,1-.3-.15A2.27,2.27,0,0,0,233,54.8a2,2,0,0,0-1.65.75,3.24,3.24,0,0,0,0,3.84,2.11,2.11,0,0,0,1.67.76,2.34,2.34,0,0,0,1.77-.72.41.41,0,0,1,.31-.17.42.42,0,0,1,.27.13l.17.15a.41.41,0,0,1,.16.31.56.56,0,0,1-.1.27A3.11,3.11,0,0,1,233,61.29Z"/>
    <path class="cls-2" d="M240.11,61.29a4.06,4.06,0,0,1-2.84-.95.41.41,0,0,1-.15-.27.46.46,0,0,1,.13-.3l.12-.16a.4.4,0,0,1,.3-.15.5.5,0,0,1,.28.11,3.38,3.38,0,0,0,2.06.58c1,0,1.54-.35,1.54-1a.88.88,0,0,0-.44-.81,3.42,3.42,0,0,0-1.28-.38c-.31,0-.58-.09-.81-.14a4.38,4.38,0,0,1-.69-.24,2,2,0,0,1-.57-.39,1.64,1.64,0,0,1-.36-.59,2.3,2.3,0,0,1-.13-.83,1.81,1.81,0,0,1,.77-1.49,3.23,3.23,0,0,1,2-.59,3.44,3.44,0,0,1,2.45.89.38.38,0,0,1,.13.28.48.48,0,0,1-.12.3l-.15.16a.38.38,0,0,1-.58,0,2.43,2.43,0,0,0-.8-.41,4.07,4.07,0,0,0-1-.11,1.86,1.86,0,0,0-1.13.27.88.88,0,0,0-.35.71.73.73,0,0,0,.38.71,4.5,4.5,0,0,0,1.34.35c.29,0,.55.1.78.16a4.22,4.22,0,0,1,.7.25,2.22,2.22,0,0,1,.6.39,1.69,1.69,0,0,1,.39.59,2.09,2.09,0,0,1,.15.81,2,2,0,0,1-.73,1.62A3,3,0,0,1,240.11,61.29Z"/>
    <path class="cls-2" d="M249.58,61.11a.39.39,0,0,1-.29-.1.37.37,0,0,1-.11-.3V55h-1.09a.37.37,0,0,1-.41-.41v-.32a.38.38,0,0,1,.41-.41h1.09V53.7a3.49,3.49,0,0,1,.76-2.45,2.78,2.78,0,0,1,2.14-.82,2.63,2.63,0,0,1,1.68.55.41.41,0,0,1,.18.29.48.48,0,0,1-.1.27l-.12.18a.37.37,0,0,1-.3.21.61.61,0,0,1-.26-.09,2,2,0,0,0-1-.27,1.54,1.54,0,0,0-1.26.52,2.28,2.28,0,0,0-.44,1.54v.2h2.7a.44.44,0,0,1,.3.11.41.41,0,0,1,.11.3v.32a.41.41,0,0,1-.11.3.44.44,0,0,1-.3.11h-2.7v5.74a.41.41,0,0,1-.11.3.39.39,0,0,1-.29.1Z"/>
    <path class="cls-2" d="M258.38,61.29a3.59,3.59,0,0,1-2.7-1.06,4.12,4.12,0,0,1,0-5.47,3.84,3.84,0,0,1,5.35,0,3.83,3.83,0,0,1,1,2.75,3.75,3.75,0,0,1-1,2.71A3.5,3.5,0,0,1,258.38,61.29Zm0-1.14a2.18,2.18,0,0,0,1.74-.76,3.11,3.11,0,0,0,0-3.83,2.15,2.15,0,0,0-1.74-.76,2.22,2.22,0,0,0-1.77.76,3.07,3.07,0,0,0,0,3.83A2.25,2.25,0,0,0,258.38,60.15Z"/>
    <path class="cls-2" d="M264.55,61.11a.35.35,0,0,1-.4-.4V54.24a.36.36,0,0,1,.4-.41h.25a.4.4,0,0,1,.45.34,6.63,6.63,0,0,1,.12.81,3.1,3.1,0,0,1,1-1,2.66,2.66,0,0,1,1.37-.35,2.35,2.35,0,0,1,.77.12.31.31,0,0,1,.21.33.6.6,0,0,1,0,.22l-.14.36a.38.38,0,0,1-.36.25l-.17,0a1.73,1.73,0,0,0-.41,0,2.1,2.1,0,0,0-1.59.65,2.55,2.55,0,0,0-.62,1.86v3.32a.36.36,0,0,1-.41.4Z"/>
    <path class="cls-2" d="M277.22,61.29a3.5,3.5,0,0,1-2.69-1,3.85,3.85,0,0,1-1-2.76,3.9,3.9,0,0,1,1-2.71,3.26,3.26,0,0,1,2.55-1.11,3.08,3.08,0,0,1,2.4,1,3.87,3.87,0,0,1,.87,2.67v.1a.42.42,0,0,1-.1.3.4.4,0,0,1-.3.1H274.8a2.62,2.62,0,0,0,.72,1.7,2.26,2.26,0,0,0,1.7.66,2.75,2.75,0,0,0,2-.73.52.52,0,0,1,.3-.16.39.39,0,0,1,.27.11l.18.15a.43.43,0,0,1,.18.33.33.33,0,0,1-.09.22A3.36,3.36,0,0,1,277.22,61.29Zm-2.38-4.56H279a2.37,2.37,0,0,0-.57-1.44,1.83,1.83,0,0,0-1.38-.51,2.2,2.2,0,0,0-1.48.51A2.41,2.41,0,0,0,274.84,56.73Z"/>
    <path class="cls-2" d="M284.71,61.11a.47.47,0,0,1-.47-.31l-2.7-6.5a.45.45,0,0,1-.05-.19c0-.19.12-.28.36-.28h.53a.45.45,0,0,1,.47.31l2.21,5.6,2.17-5.6a.46.46,0,0,1,.47-.31h.53c.24,0,.36.09.36.28a.34.34,0,0,1,0,.19l-2.71,6.5a.47.47,0,0,1-.47.31Z"/>
    <path class="cls-2" d="M293.27,61.29a3.49,3.49,0,0,1-2.68-1,3.86,3.86,0,0,1-1-2.76,3.9,3.9,0,0,1,1-2.71,3.27,3.27,0,0,1,2.56-1.11,3.08,3.08,0,0,1,2.4,1,3.87,3.87,0,0,1,.87,2.67v.1a.39.39,0,0,1-.11.3.39.39,0,0,1-.29.1h-5.17a2.68,2.68,0,0,0,.73,1.7,2.24,2.24,0,0,0,1.69.66,2.78,2.78,0,0,0,2-.73.49.49,0,0,1,.3-.16.39.39,0,0,1,.26.11l.19.15a.45.45,0,0,1,.17.33.37.37,0,0,1-.08.22A3.38,3.38,0,0,1,293.27,61.29Zm-2.37-4.56h4.2a2.32,2.32,0,0,0-.58-1.44,1.8,1.8,0,0,0-1.37-.51,2.18,2.18,0,0,0-1.48.51A2.41,2.41,0,0,0,290.9,56.73Z"/>
    <path class="cls-2" d="M299,61.11a.35.35,0,0,1-.4-.4V54.24a.36.36,0,0,1,.4-.41h.25a.4.4,0,0,1,.45.34,6.63,6.63,0,0,1,.12.81,3.1,3.1,0,0,1,1-1,2.66,2.66,0,0,1,1.37-.35,2.35,2.35,0,0,1,.77.12.31.31,0,0,1,.21.33.6.6,0,0,1,0,.22l-.14.36a.38.38,0,0,1-.36.25l-.17,0a1.73,1.73,0,0,0-.41,0,2.1,2.1,0,0,0-1.59.65,2.55,2.55,0,0,0-.62,1.86v3.32a.36.36,0,0,1-.41.4Z"/>
    <path class="cls-2" d="M305.58,64.31a2.35,2.35,0,0,1-1.5-.44.39.39,0,0,1-.17-.3.51.51,0,0,1,.09-.26l.11-.17a.35.35,0,0,1,.29-.18.48.48,0,0,1,.27.09,1.36,1.36,0,0,0,.75.2.77.77,0,0,0,.4-.1,1.16,1.16,0,0,0,.32-.24,2.34,2.34,0,0,0,.3-.44c.1-.2.19-.38.26-.54s.17-.39.29-.69l.12-.26L304,54.31a.51.51,0,0,1,0-.2c0-.19.12-.28.36-.28h.58a.51.51,0,0,1,.48.31l2.33,5.32,1.95-5.3a.44.44,0,0,1,.46-.33h.55c.24,0,.36.09.36.28a.59.59,0,0,1-.05.19l-2.88,7.44C307.41,63.45,306.58,64.31,305.58,64.31Z"/>
    <path class="cls-2" d="M315.84,61.29a3.56,3.56,0,0,1-2.7-1.06,3.79,3.79,0,0,1-1-2.75,3.75,3.75,0,0,1,1.06-2.72,3.84,3.84,0,0,1,5.35,0,3.83,3.83,0,0,1,1,2.75,3.79,3.79,0,0,1-1,2.71A3.51,3.51,0,0,1,315.84,61.29Zm0-1.14a2.21,2.21,0,0,0,1.74-.76,3.11,3.11,0,0,0,0-3.83,2.18,2.18,0,0,0-1.74-.76,2.24,2.24,0,0,0-1.78.76,3.11,3.11,0,0,0,0,3.83A2.27,2.27,0,0,0,315.84,60.15Z"/>
    <path class="cls-2" d="M322,61.11a.4.4,0,0,1-.3-.1.41.41,0,0,1-.11-.3V54.24a.37.37,0,0,1,.41-.41h.26a.41.41,0,0,1,.45.33,4,4,0,0,1,.12.82,2.83,2.83,0,0,1,1.06-1,2.91,2.91,0,0,1,1.45-.35,2.8,2.8,0,0,1,2.16.82,3.47,3.47,0,0,1,.77,2.47v3.76a.37.37,0,0,1-.11.3.4.4,0,0,1-.3.1h-.46a.4.4,0,0,1-.3-.1.41.41,0,0,1-.11-.3V56.89a2.29,2.29,0,0,0-.46-1.56,1.64,1.64,0,0,0-1.3-.53,2.24,2.24,0,0,0-1.72.67,2.57,2.57,0,0,0-.64,1.85v3.39a.35.35,0,0,1-.4.4Z"/>
    <path class="cls-2" d="M333.88,61.29a3.51,3.51,0,0,1-2.69-1,4.29,4.29,0,0,1,0-5.47,3.26,3.26,0,0,1,2.55-1.11,3.11,3.11,0,0,1,2.41,1,3.87,3.87,0,0,1,.87,2.67v.1a.42.42,0,0,1-.11.3.4.4,0,0,1-.3.1h-5.16a2.73,2.73,0,0,0,.72,1.7,2.27,2.27,0,0,0,1.7.66,2.79,2.79,0,0,0,2-.73.5.5,0,0,1,.29-.16.39.39,0,0,1,.27.11l.18.15a.43.43,0,0,1,.18.33.37.37,0,0,1-.08.22A3.38,3.38,0,0,1,333.88,61.29Zm-2.37-4.56h4.19a2.26,2.26,0,0,0-.57-1.44,1.8,1.8,0,0,0-1.38-.51,2.2,2.2,0,0,0-1.48.51A2.4,2.4,0,0,0,331.51,56.73Z"/>
  </g>
  <rect class="cls-3" width="349.65" height="75.11"/>
</svg>
