<svg id="Laag_1" data-name="Laag 1" xmlns="http://www.w3.org/2000/svg" xmlns:xlink="http://www.w3.org/1999/xlink" viewBox="0 0 349.65 75.11"><defs><style>.cls-1{fill:url(#Naamloos_verloop_17);}.cls-2{font-size:15.6px;fill:#1d1d1b;font-family:MargemRounded-Regular, Margem Rounded;}.cls-3{letter-spacing:-0.01em;}.cls-4{letter-spacing:0em;}.cls-5{letter-spacing:-0.01em;}.cls-6{fill:none;}</style><linearGradient id="Naamloos_verloop_17" x1="96.27" y1="29.07" x2="242.47" y2="29.07" gradientUnits="userSpaceOnUse"><stop offset="0" stop-color="#005c95"/><stop offset="0.07" stop-color="#00659e"/><stop offset="0.29" stop-color="#0080b5"/><stop offset="0.52" stop-color="#0093c6"/><stop offset="0.75" stop-color="#009ed1"/><stop offset="1" stop-color="#00a2d4"/></linearGradient></defs><path class="cls-1" d="M108.08,36.52a11.41,11.41,0,0,1-8.57-3.35,11.75,11.75,0,0,1-3.24-8.51,12,12,0,0,1,1.46-5.89,11.13,11.13,0,0,1,4.18-4.3,11.84,11.84,0,0,1,6.17-1.62,12.22,12.22,0,0,1,6.22,1.55,10.38,10.38,0,0,1,4.13,4.23,12.77,12.77,0,0,1,1.41,6,12.26,12.26,0,0,1-1.45,5.91,11.15,11.15,0,0,1-4.17,4.32A11.67,11.67,0,0,1,108.08,36.52Zm0-4.62a5.81,5.81,0,0,0,4.73-2.07,7.86,7.86,0,0,0,1.71-5.17,7.8,7.8,0,0,0-1.71-5.14,5.72,5.72,0,0,0-4.68-2.08,5.88,5.88,0,0,0-4.8,2.08,7.75,7.75,0,0,0-1.72,5.14,7.86,7.86,0,0,0,1.71,5.17A5.84,5.84,0,0,0,108.08,31.9Zm27.7,4.62a10.75,10.75,0,0,1-8.27-3.3,12.08,12.08,0,0,1-3.07-8.56,11.87,11.87,0,0,1,3.15-8.46,10.69,10.69,0,0,1,8.14-3.35,9.48,9.48,0,0,1,8.07,3.7,1.4,1.4,0,0,1,.37.89,1.53,1.53,0,0,1-.72,1.17l-.87.66a1.49,1.49,0,0,1-.89.45,1.73,1.73,0,0,1-1.17-.64A6.32,6.32,0,0,0,136,17.44a5.58,5.58,0,0,0-4.54,2,7.91,7.91,0,0,0-1.65,5.21,7.8,7.8,0,0,0,1.71,5.19,5.69,5.69,0,0,0,4.62,2A6.23,6.23,0,0,0,140.82,30a1.77,1.77,0,0,1,1.2-.63,1.52,1.52,0,0,1,1,.44l.86.68a1.64,1.64,0,0,1,.66,1.2,1.59,1.59,0,0,1-.33.91A9.92,9.92,0,0,1,135.78,36.52ZM168,45.29a1.57,1.57,0,0,1-1.13-.4,1.48,1.48,0,0,1-.41-1.13V33A10.61,10.61,0,0,1,163,35.57a9.72,9.72,0,0,1-4.25,1,9.52,9.52,0,0,1-7.58-3.3,12.66,12.66,0,0,1-2.85-8.56,12.19,12.19,0,0,1,3-8.53,10,10,0,0,1,7.77-3.28,9.08,9.08,0,0,1,7.6,3.58c0-.29.09-.89.23-1.8a1.57,1.57,0,0,1,1.73-1.27h1.53a1.54,1.54,0,0,1,1.13.41,1.46,1.46,0,0,1,.41,1.09v28.9a1.48,1.48,0,0,1-.41,1.13,1.57,1.57,0,0,1-1.13.4ZM159.64,31.9a6.81,6.81,0,0,0,4.91-1.79,6.4,6.4,0,0,0,1.89-4.89v-1a6.66,6.66,0,0,0-1.8-5,6.53,6.53,0,0,0-4.76-1.74,6,6,0,0,0-4.47,1.77q-1.72,1.77-1.72,5.36A8.08,8.08,0,0,0,155.32,30,5.42,5.42,0,0,0,159.64,31.9Zm26.25,4.62a8.76,8.76,0,0,1-6.12-1.94,6.7,6.7,0,0,1,.31-10c1.61-1.36,3.94-2,7-2a17.77,17.77,0,0,1,6.42,1v-.45A6,6,0,0,0,192,18.65a5.52,5.52,0,0,0-4-1.44,10.55,10.55,0,0,0-5.86,1.59,2.5,2.5,0,0,1-1,.33,1.35,1.35,0,0,1-1.1-.61l-.68-.82a1.6,1.6,0,0,1-.42-1.05,1.35,1.35,0,0,1,.66-1.11,12.21,12.21,0,0,1,4-2.08,17.7,17.7,0,0,1,4.92-.61,11.81,11.81,0,0,1,3.87.62,9.32,9.32,0,0,1,3.16,1.83,8,8,0,0,1,2.17,3.19,12.08,12.08,0,0,1,.79,4.53V34.43a1.58,1.58,0,0,1-.4,1.14A1.52,1.52,0,0,1,197,36h-1.1c-1,0-1.56-.4-1.69-1.19-.18-1-.29-1.69-.32-2.11C192.16,35.24,189.48,36.52,185.89,36.52Zm.75-4.15a7.34,7.34,0,0,0,4.77-1.44,5.23,5.23,0,0,0,2-3.78l0-.29a19.42,19.42,0,0,0-5.46-.77,7.35,7.35,0,0,0-4,.86,2.81,2.81,0,0,0-1.25,2.49,2.45,2.45,0,0,0,1.09,2.23A5.24,5.24,0,0,0,186.64,32.37ZM207,36a1.51,1.51,0,0,1-1.12-.41,1.54,1.54,0,0,1-.4-1.14V14.86a1.47,1.47,0,0,1,.4-1.11,1.54,1.54,0,0,1,1.12-.39h1.46a1.48,1.48,0,0,1,1.66,1.18,15.8,15.8,0,0,1,.31,2.15,8.78,8.78,0,0,1,7.47-3.84q5.53,0,7.55,4.36a9.1,9.1,0,0,1,8.3-4.36,8.07,8.07,0,0,1,6.49,2.62q2.25,2.62,2.25,7.79V34.43A1.41,1.41,0,0,1,240.92,36h-2.25a1.47,1.47,0,0,1-1.11-.41,1.58,1.58,0,0,1-.39-1.14V23a6.59,6.59,0,0,0-1.12-4.16,4,4,0,0,0-3.33-1.42,5.56,5.56,0,0,0-4.5,1.89,8.22,8.22,0,0,0-1.59,5.43v9.67a1.54,1.54,0,0,1-.41,1.15,1.57,1.57,0,0,1-1.14.4h-2.25a1.44,1.44,0,0,1-1.09-.41,1.58,1.58,0,0,1-.39-1.14V23a6.41,6.41,0,0,0-1.16-4.16,4.1,4.1,0,0,0-3.36-1.42,5.51,5.51,0,0,0-4.44,1.89,8.16,8.16,0,0,0-1.61,5.43v9.67A1.41,1.41,0,0,1,209.23,36ZM242.45,44a1,1,0,0,1-.65.92,4.08,4.08,0,0,1-1.82.33H180.62a4.06,4.06,0,0,1-1.81-.33,1,1,0,0,1-.66-.92V42.59a1,1,0,0,1,.66-.91,4.06,4.06,0,0,1,1.81-.33H240a4.08,4.08,0,0,1,1.82.33,1,1,0,0,1,.65.91Z"/><text class="cls-2" transform="translate(177.17 61.11)">s<tspan class="cls-3" x="7.28" y="0">ta</tspan><tspan class="cls-4" x="22.46" y="0">tistics </tspan><tspan class="cls-5" x="70.04" y="0">f</tspan><tspan class="cls-4" x="76.7" y="0">or </tspan><tspan class="cls-3" x="95.6" y="0">ev</tspan><tspan x="111.65" y="0">eryone</tspan></text><rect class="cls-6" width="349.65" height="75.11"/></svg>