<svg id="Laag_1" data-name="Laag 1" xmlns="http://www.w3.org/2000/svg" xmlns:xlink="http://www.w3.org/1999/xlink" viewBox="0 0 156.88 43.44"><defs><style>.cls-1{fill:url(#Naamloos_verloop_24);}</style><linearGradient id="Naamloos_verloop_24" x1="5.34" y1="21.72" x2="151.54" y2="21.72" gradientUnits="userSpaceOnUse"><stop offset="0" stop-color="#005c95"/><stop offset="0.11" stop-color="#006da4"/><stop offset="0.3" stop-color="#0084b9"/><stop offset="0.5" stop-color="#0095c8"/><stop offset="0.72" stop-color="#009fd1"/><stop offset="1" stop-color="#00a2d4"/></linearGradient></defs><path class="cls-1" d="M17.15,29.17a11.39,11.39,0,0,1-8.56-3.35,11.7,11.7,0,0,1-3.25-8.51A12.16,12.16,0,0,1,6.8,11.42,11.16,11.16,0,0,1,11,7.12,11.81,11.81,0,0,1,17.15,5.5a12.29,12.29,0,0,1,6.22,1.55,10.38,10.38,0,0,1,4.13,4.23,12.66,12.66,0,0,1,1.42,6,12.26,12.26,0,0,1-1.46,5.91,11,11,0,0,1-4.17,4.32A11.67,11.67,0,0,1,17.15,29.17Zm0-4.62a5.81,5.81,0,0,0,4.74-2.07,7.86,7.86,0,0,0,1.71-5.17,7.81,7.81,0,0,0-1.71-5.14,5.74,5.74,0,0,0-4.69-2.08,5.85,5.85,0,0,0-4.79,2.08,7.77,7.77,0,0,0-1.73,5.14,7.86,7.86,0,0,0,1.71,5.17A5.84,5.84,0,0,0,17.15,24.55Zm27.71,4.62a10.77,10.77,0,0,1-8.28-3.3,12.08,12.08,0,0,1-3.07-8.56,11.88,11.88,0,0,1,3.15-8.46A10.71,10.71,0,0,1,44.81,5.5a9.48,9.48,0,0,1,8.06,3.7,1.41,1.41,0,0,1,.38.89,1.57,1.57,0,0,1-.73,1.18l-.87.65a1.47,1.47,0,0,1-.89.45,1.73,1.73,0,0,1-1.17-.64A6.32,6.32,0,0,0,45,10.09a5.54,5.54,0,0,0-4.53,2,7.91,7.91,0,0,0-1.65,5.21,7.8,7.8,0,0,0,1.71,5.19,5.69,5.69,0,0,0,4.61,2.05,6.23,6.23,0,0,0,4.71-1.87,1.79,1.79,0,0,1,1.2-.63,1.48,1.48,0,0,1,1,.44l.87.68a1.62,1.62,0,0,1,.65,1.2,1.65,1.65,0,0,1-.32.91A9.93,9.93,0,0,1,44.86,29.17Zm32.2,8.77a1.6,1.6,0,0,1-1.14-.4,1.52,1.52,0,0,1-.41-1.13V25.61a10.61,10.61,0,0,1-3.42,2.61,10.21,10.21,0,0,1-11.82-2.35,12.66,12.66,0,0,1-2.85-8.56,12.15,12.15,0,0,1,3-8.53A10,10,0,0,1,68.18,5.5a9,9,0,0,1,7.59,3.59c0-.3.09-.9.23-1.81A1.56,1.56,0,0,1,77.74,6h1.52a1.52,1.52,0,0,1,1.14.41,1.47,1.47,0,0,1,.41,1.09V36.41a1.52,1.52,0,0,1-.41,1.13,1.6,1.6,0,0,1-1.14.4ZM68.71,24.55a6.79,6.79,0,0,0,4.91-1.79,6.4,6.4,0,0,0,1.89-4.89v-1a6.69,6.69,0,0,0-1.79-5A6.57,6.57,0,0,0,69,10.09a6,6,0,0,0-4.47,1.77,7.45,7.45,0,0,0-1.72,5.36,8.08,8.08,0,0,0,1.63,5.46A5.45,5.45,0,0,0,68.71,24.55ZM95,29.17a8.72,8.72,0,0,1-6.11-1.94,6.41,6.41,0,0,1-2.11-4.93,6.42,6.42,0,0,1,2.41-5.11q2.41-2,7-2a17.77,17.77,0,0,1,6.42,1.05v-.44a6,6,0,0,0-1.47-4.47,5.55,5.55,0,0,0-4-1.44,10.6,10.6,0,0,0-5.86,1.59,2.47,2.47,0,0,1-1,.33,1.34,1.34,0,0,1-1.1-.61l-.68-.82a1.56,1.56,0,0,1-.43-1,1.35,1.35,0,0,1,.66-1.11,12.59,12.59,0,0,1,4-2.08,17.72,17.72,0,0,1,4.93-.61,11.7,11.7,0,0,1,3.86.62A9.37,9.37,0,0,1,104.67,8a8.17,8.17,0,0,1,2.17,3.19,12.29,12.29,0,0,1,.78,4.53V27.09a1.53,1.53,0,0,1-.4,1.13,1.46,1.46,0,0,1-1.12.41H105c-1,0-1.57-.4-1.69-1.19a20.81,20.81,0,0,1-.33-2.11Q100.36,29.17,95,29.17ZM95.71,25a7.34,7.34,0,0,0,4.77-1.44,5.19,5.19,0,0,0,2-3.78l0-.28A19.07,19.07,0,0,0,97,18.74a7.39,7.39,0,0,0-4,.86,2.84,2.84,0,0,0-1.25,2.49,2.45,2.45,0,0,0,1.09,2.23A5.26,5.26,0,0,0,95.71,25Zm20.35,3.61a1.48,1.48,0,0,1-1.13-.41,1.57,1.57,0,0,1-.4-1.13V7.52a1.51,1.51,0,0,1,.4-1.12A1.55,1.55,0,0,1,116.06,6h1.45a1.49,1.49,0,0,1,1.67,1.17,15.77,15.77,0,0,1,.3,2.15A8.78,8.78,0,0,1,127,5.5c3.68,0,6.2,1.45,7.54,4.36a9.11,9.11,0,0,1,8.3-4.36,8.07,8.07,0,0,1,6.49,2.62q2.25,2.63,2.25,7.79V27.09a1.48,1.48,0,0,1-.41,1.14,1.53,1.53,0,0,1-1.13.4h-2.25a1.44,1.44,0,0,1-1.12-.41,1.56,1.56,0,0,1-.38-1.13V15.67a6.59,6.59,0,0,0-1.13-4.16,4,4,0,0,0-3.33-1.42,5.58,5.58,0,0,0-4.5,1.89,8.22,8.22,0,0,0-1.59,5.43v9.68a1.51,1.51,0,0,1-.41,1.14,1.54,1.54,0,0,1-1.14.4H131.9a1.4,1.4,0,0,1-1.09-.41,1.56,1.56,0,0,1-.38-1.13V15.67a6.47,6.47,0,0,0-1.16-4.16,4.13,4.13,0,0,0-3.37-1.42A5.51,5.51,0,0,0,121.46,12a8.16,8.16,0,0,0-1.6,5.43v9.68a1.51,1.51,0,0,1-.41,1.14,1.57,1.57,0,0,1-1.14.4Zm35.47,8.06a1,1,0,0,1-.65.92,4.11,4.11,0,0,1-1.82.33H89.7a4.11,4.11,0,0,1-1.82-.33,1,1,0,0,1-.65-.92V35.24a1,1,0,0,1,.65-.91A4.11,4.11,0,0,1,89.7,34h59.36a4.11,4.11,0,0,1,1.82.33,1,1,0,0,1,.65.91Z"/></svg>